<?xml version="1.0" standalone="no"?>
<!DOCTYPE svg PUBLIC "-//W3C//DTD SVG 20010904//EN"
 "http://www.w3.org/TR/2001/REC-SVG-20010904/DTD/svg10.dtd">
<svg version="1.0" xmlns="http://www.w3.org/2000/svg"
 width="700.000000pt" height="700.000000pt" viewBox="0 0 700.000000 700.000000"
 preserveAspectRatio="xMidYMid meet">
<metadata>
Created by potrace 1.11, written by Peter Selinger 2001-2013
</metadata>
<g transform="translate(0.000000,700.000000) scale(0.100000,-0.100000)"
fill="#000000" stroke="none">
<path d="M3027 4615 c-81 -27 -94 -146 -20 -186 18 -10 94 -13 311 -14 l286
-1 16 -49 c9 -28 19 -57 23 -65 3 -8 45 -127 92 -265 48 -137 102 -294 121
-347 19 -54 49 -142 68 -195 19 -54 71 -204 116 -333 67 -196 152 -419 215
-565 7 -16 26 -61 42 -99 49 -118 -9 -108 659 -108 319 0 598 1 621 1 60 1 96
34 99 92 2 50 -18 86 -55 101 -16 6 -245 9 -587 9 l-562 1 -42 101 c-23 56
-44 108 -47 115 -4 9 134 12 670 12 405 0 686 4 701 10 14 5 32 20 42 34 13
20 46 149 79 306 13 63 110 501 125 565 45 193 103 462 104 481 0 36 -25 82
-53 96 -39 19 -1684 19 -1718 0 -43 -24 -57 -67 -42 -124 19 -72 -21 -69 829
-69 l760 0 -5 -22 c-3 -12 -12 -53 -21 -92 -9 -38 -18 -79 -19 -90 -2 -11 -8
-38 -13 -60 -6 -22 -13 -51 -16 -65 -2 -14 -14 -68 -26 -120 -12 -52 -24 -105
-26 -116 -17 -90 -116 -519 -120 -523 -3 -3 -304 -6 -669 -6 l-664 0 -15 40
c-8 22 -31 87 -51 145 -139 400 -193 552 -263 755 -44 127 -97 277 -117 335
-20 58 -48 139 -62 180 -33 96 -55 128 -96 135 -58 11 -639 11 -670 0z"/>
<path d="M1200 3823 c-70 -11 -110 -51 -110 -109 0 -31 52 -83 84 -85 90 -7
2151 -4 2185 3 68 12 103 75 75 133 -30 63 33 60 -1139 61 -588 0 -1081 -1
-1095 -3z"/>
<path d="M2624 3200 c-377 -5 -371 -4 -398 -59 -15 -28 -12 -63 5 -98 25 -48
33 -48 753 -48 l676 0 25 25 c53 54 46 133 -15 165 -32 17 -477 23 -1046 15z"/>
<path d="M992 2580 c-109 -16 -130 -145 -31 -184 36 -14 190 -16 1473 -16
1006 0 1443 4 1465 11 63 22 91 98 53 145 -41 51 33 49 -1492 49 -784 0 -1444
-2 -1468 -5z"/>
</g>
</svg>
