<svg xmlns="http://www.w3.org/2000/svg" viewBox="0 0 512 47.14"><defs><style>.cls-1{fill:#4267ad;}.cls-2{fill:#333;}</style></defs><title>fc-logo_2018--inlineNoWhite_1</title><g id="Calque_2" data-name="Calque 2"><g id="Calque_1-2" data-name="Calque 1"><g id="Group-2-Copy-5"><g id="Group-5-Copy-12"><path id="Shape" class="cls-1" d="M72.84,6.33c-2.7,0-2.7,4.29,0,4.29h31.44q-2.53,11.44-5.08,22.89h-28L60.12,1.71a2.14,2.14,0,0,0-2-1.58h-13c-2.7,0-2.7,4.29,0,4.29H56.64q5.53,15.9,11.06,31.8,1.86,4.53,3.71,9.06a2.18,2.18,0,0,0,2,1.58H98.08c2.69,0,2.69-4.29,0-4.29H74.8c-.65-1.6-1.31-3.18-2-4.77h28a2.11,2.11,0,0,0,2-1.58q3-13.57,6-27.18a2.15,2.15,0,0,0-2-2.71Z"/><path id="Path-Copy" class="cls-1" d="M24.26,42.69H61.53c1.95,0,2.85,1,2.85,2.16S63.48,47,61.53,47H24.26c-2,0-2.8-1-2.8-2.15S22.31,42.69,24.26,42.69Z"/><path id="Path-Copy-2" class="cls-1" d="M57.09,34.12h-17a2.14,2.14,0,0,1,0-4.27h17a2.14,2.14,0,0,1,0,4.27Z"/><path id="Path-Copy-2-2" data-name="Path-Copy-2" class="cls-1" d="M46.67,34.12h-17a2.14,2.14,0,0,1,0-4.27h17a2.14,2.14,0,0,1,0,4.27Z"/><path id="Path-Copy-3" class="cls-1" d="M23,16.73H50.56c2,0,2.82,1,2.82,2.12S52.59,21,50.56,21H23c-2,.13-3.06-.87-3.06-2.12S20.94,16.73,23,16.73Z"/><path id="Path-Copy-2-3" data-name="Path-Copy" class="cls-1" d="M2.8,42.69H40.06c2,0,2.86,1,2.86,2.16S42,47,40.06,47H2.8C.84,47,0,46,0,44.85S.84,42.69,2.8,42.69Z"/><path id="Path-Copy-3-2" data-name="Path-Copy-3" class="cls-1" d="M7.08,16.73H34.67c2,0,2.82,1,2.82,2.12S36.7,21,34.67,21H7.08C5.05,21.1,4,20.1,4,18.85S5.05,16.73,7.08,16.73Z"/></g><path id="Front" class="cls-2" d="M123.09,46.87h4.54a2.21,2.21,0,0,0,2.16-1.78l4.06-20.91A2.2,2.2,0,0,1,136,22.41h10.58a1.09,1.09,0,0,0,1.08-.89l.63-3.24a1.24,1.24,0,0,0-1.08-1.47h-9.35a2.08,2.08,0,0,1-2.16-2.46l1.38-7.13a2.21,2.21,0,0,1,2.16-1.78H152.3a1.09,1.09,0,0,0,1.08-.89L154,1.31A1.1,1.1,0,0,0,152.93,0H133.11A1.09,1.09,0,0,0,132,.89Zm25.22,0h5.45a1.11,1.11,0,0,0,1.08-.9l3.24-16.85c1.69-4.53,5.12-6.64,7.82-6.64a8.33,8.33,0,0,1,1.84.18A1.07,1.07,0,0,0,169,22l1.39-3.67a1.1,1.1,0,0,0-1-1.49h-1.49c-3.48,0-5.9.68-8.19,4.32l-.38,2.07,1-5.18a1.1,1.1,0,0,0-1.09-1.21h-4.06a1.11,1.11,0,0,0-1.08.89Zm60.36-19.94a1.1,1.1,0,0,1,.31-.57c2.82-2.82,4.92-4.06,6.82-4.06,2.47,0,3.64,1.26,3.64,3.77a19.65,19.65,0,0,1-.47,3.11l-3.53,17.69h5.39a1.1,1.1,0,0,0,1.08-.89l3.48-17.64a17.54,17.54,0,0,0,.47-4.12c0-4.72-2-7.41-6.83-7.41-3.65,0-5.71.68-9.39,4.32h0l.62-3.14a1.1,1.1,0,0,0-1.1-1.18h-4a1.09,1.09,0,0,0-1.08.88l-5.8,29.18h5.45a1.1,1.1,0,0,0,1.08-.89Zm23.74,9.3a23.86,23.86,0,0,0-.35,3.47c0,4.06,2.12,7.17,7.53,7.17a15,15,0,0,0,5.21-.95,1.11,1.11,0,0,0,.67-1.31l-.61-2.36a1.1,1.1,0,0,0-1.44-.75,4.92,4.92,0,0,1-1.59.29c-2.41,0-3.35-1.08-3.35-3.23a12.28,12.28,0,0,1,.17-2.09l2.94-14.58h6.16a1.1,1.1,0,0,0,1.08-.89l.57-2.88a1.1,1.1,0,0,0-1.08-1.31h-5.61L244,10.23a1.1,1.1,0,0,0-1.08-1.31h-3.14a1.08,1.08,0,0,0-1.05.79l-2.07,7.1h-3.57a1.1,1.1,0,0,0-1,.88l-.77,4.2h4.06Zm-52,10.91c7.75,0,15.56-7.46,15.56-18.36,0-7.17-4.19-11.66-10.56-11.66-7.69,0-15.5,7.4-15.5,18.36,0,7.11,4.19,11.66,10.5,11.66Zm4.3-24.7c3.25,0,5,2.48,5,6.85,0,7.44-4.19,13.29-8.72,13.29-3.32,0-5.06-2.54-5.06-6.91,0-7.38,4.24-13.23,8.78-13.23Z"/><path id="_-copy" data-name="-copy" class="cls-2" d="M261.78,28.39c0,11.34,6.13,18.6,16.34,18.6a19.31,19.31,0,0,0,12.4-4.76,1.09,1.09,0,0,0,.19-1.44l-2-3a1.09,1.09,0,0,0-1.57-.27,12.4,12.4,0,0,1-7.6,3c-7.22,0-10.28-5.11-10.28-12.72,0-10.5,6.4-21.29,15.45-21.29,2.57,0,4.51,1.29,6.1,3.47a1.1,1.1,0,0,0,1.57.23l3.33-2.61A1.09,1.09,0,0,0,296,6.2,12.66,12.66,0,0,0,285.13.12c-13.62,0-23.35,13.34-23.35,28.27ZM323.69,47h5.45a1.1,1.1,0,0,0,1.08-.89L333.93,27c2.88-3.17,5.35-4.54,6.88-4.54,2.3,0,3.47,1.25,3.47,3.76a14.39,14.39,0,0,1-.47,3.11L340.34,47h5.39a1.09,1.09,0,0,0,1.08-.89L350.58,27c2.94-3.17,5.41-4.54,6.88-4.54,2.36,0,3.53,1.25,3.53,3.76a14.39,14.39,0,0,1-.47,3.11L357,47h5.45a1.09,1.09,0,0,0,1.08-.89L367,28.49a21.53,21.53,0,0,0,.47-4.13c0-4.72-2.06-7.41-6.83-7.41-3.12,0-6.59,2.15-10,5.44-.59-3.17-2.24-5.44-6.71-5.44-3.12,0-6.71,2.21-9.65,4.84h0l.21-2.94a1.1,1.1,0,0,0-1.1-1.18h-3a1.09,1.09,0,0,0-1.08.89Zm45.13,0h5.45a1.09,1.09,0,0,0,1.08-.89L379.06,27c2.89-3.17,5.36-4.54,6.89-4.54,2.29,0,3.47,1.25,3.47,3.76a15,15,0,0,1-.47,3.11L385.48,47h5.39a1.1,1.1,0,0,0,1.08-.89L395.71,27c3-3.17,5.42-4.54,6.89-4.54q3.52,0,3.53,3.76a15,15,0,0,1-.47,3.11L402.13,47h5.45a1.1,1.1,0,0,0,1.08-.89l3.47-17.63a20.76,20.76,0,0,0,.47-4.13c0-4.72-2.06-7.41-6.82-7.41-3.12,0-6.59,2.15-10,5.44-.58-3.17-2.23-5.44-6.7-5.44-3.12,0-6.71,2.21-9.65,4.84h0l.21-2.94a1.1,1.1,0,0,0-1.1-1.18h-3a1.09,1.09,0,0,0-1.08.89Zm48.05-12.14c0,7.69,4.59,12.12,11.3,12.12a16.7,16.7,0,0,0,8.74-2.44,1.1,1.1,0,0,0,.39-1.49L436.11,41a1.11,1.11,0,0,0-1.56-.37,9.48,9.48,0,0,1-4.77,1.61c-4,0-7.16-2.25-7-7.53a1.13,1.13,0,0,1,1.11-1.1h15.36a1.09,1.09,0,0,0,1-.74,18,18,0,0,0,.93-5.32c0-5.94-2.41-10.55-8.95-10.55-7.41,0-15.38,7.23-15.38,17.9Zm8-5.25a1.1,1.1,0,0,1-1-1.5c1.59-4,4.62-6.31,7.64-6.31,3.44,0,4.59,2.51,4.59,5.3a11.09,11.09,0,0,1-.11,1.58,1.1,1.1,0,0,1-1.09.93Zm62.78,5.25c0,7.69,4.59,12.12,11.3,12.12a16.7,16.7,0,0,0,8.74-2.44,1.1,1.1,0,0,0,.39-1.49L506.91,41a1.1,1.1,0,0,0-1.56-.37,9.48,9.48,0,0,1-4.77,1.61c-4,0-7.15-2.25-7-7.53a1.13,1.13,0,0,1,1.11-1.1H510a1.08,1.08,0,0,0,1-.74,17.68,17.68,0,0,0,.93-5.32c0-5.94-2.41-10.55-8.95-10.55-7.4,0-15.38,7.23-15.38,17.9Zm8-5.25a1.11,1.11,0,0,1-1-1.5c1.59-4,4.62-6.31,7.64-6.31,3.45,0,4.59,2.51,4.59,5.3a11.09,11.09,0,0,1-.11,1.58,1.1,1.1,0,0,1-1.09.93Zm-31,5.71c0,7.4,4.53,11.66,10.73,11.66a14.29,14.29,0,0,0,8.35-2.69,1.11,1.11,0,0,0,.3-1.52l-1.4-2.11a1.12,1.12,0,0,0-1.56-.28,7.68,7.68,0,0,1-4.43,1.53c-3.78,0-5.68-2.51-5.68-6.82,0-7.11,4.42-13,9.47-13A4.8,4.8,0,0,1,484,23.44a1.11,1.11,0,0,0,1.58-.05l2-2.17a1.12,1.12,0,0,0,0-1.53A9.3,9.3,0,0,0,480.86,17c-8.78,0-16.18,8.11-16.18,18.36ZM305.68,47c7.75,0,15.55-7.46,15.55-18.36C321.23,21.46,317,17,310.67,17c-7.69,0-15.49,7.41-15.49,18.36,0,7.11,4.19,11.66,10.5,11.66ZM310,22.29c3.26,0,5,2.48,5,6.85,0,7.45-4.19,13.29-8.73,13.29-3.31,0-5.06-2.54-5.06-6.91,0-7.38,4.25-13.23,8.78-13.23ZM443.31,47h5.44a1.09,1.09,0,0,0,1.08-.89l3.24-16.86c1.69-4.52,5.12-6.63,7.83-6.63a8.39,8.39,0,0,1,1.84.18,1.09,1.09,0,0,0,1.24-.69l1.38-3.68a1.09,1.09,0,0,0-1-1.49h-1.5c-3.47,0-5.89.68-8.19,4.33l-.38,2.07,1-5.19a1.1,1.1,0,0,0-1.1-1.2h-4.05a1.09,1.09,0,0,0-1.08.89Z"/></g></g></g></svg>